<svg xmlns="http://www.w3.org/2000/svg" viewBox="0 0 1200 630" width="1200" height="630">
  <defs>
    <pattern id="dots" width="22" height="22" patternUnits="userSpaceOnUse">
      <circle cx="2" cy="2" r="1" fill="#4a3a25" fill-opacity="0.06"/>
      <circle cx="13" cy="14" r="0.7" fill="#4a3a25" fill-opacity="0.04"/>
    </pattern>
    <clipPath id="brainClip">
      <path d="M 110 14 C 138 10 162 22 174 42 C 196 44 208 66 204 92 C 214 110 210 136 196 150 C 198 176 176 198 150 196 C 138 210 116 212 102 202 C 84 212 60 206 50 188 C 28 188 12 168 18 144 C 6 128 8 100 24 86 C 22 60 42 38 68 38 C 80 22 96 14 110 14 Z"/>
    </clipPath>
  </defs>

  <rect width="1200" height="630" fill="#f4f1e6"/>
  <rect width="1200" height="630" fill="url(#dots)"/>

  <!-- background blobs -->
  <ellipse cx="1080" cy="-40" rx="280" ry="220" fill="#f7e9b6" opacity="0.85" transform="rotate(20 1080 -40)"/>
  <ellipse cx="-60" cy="540" rx="240" ry="200" fill="#d9efbf" opacity="0.85" transform="rotate(-12 -60 540)"/>

  <!-- ribbons -->
  <g fill="none" stroke-linecap="round" opacity="0.55">
    <path d="M 60 360 Q 220 290 380 360 T 700 360" stroke="#e96a3d" stroke-width="14"/>
    <path d="M 60 400 Q 220 330 380 400 T 700 400" stroke="#a4c64e" stroke-width="12"/>
    <path d="M 60 440 Q 220 380 380 440 T 700 440" stroke="#f4c83a" stroke-width="10"/>
    <path d="M 60 480 Q 220 420 380 480 T 700 480" stroke="#a14a8c" stroke-width="9"/>
  </g>

  <!-- big brain (right side) -->
  <g transform="translate(820 110) scale(2.0)">
    <path d="M 110 14 C 138 10 162 22 174 42 C 196 44 208 66 204 92 C 214 110 210 136 196 150 C 198 176 176 198 150 196 C 138 210 116 212 102 202 C 84 212 60 206 50 188 C 28 188 12 168 18 144 C 6 128 8 100 24 86 C 22 60 42 38 68 38 C 80 22 96 14 110 14 Z"
          fill="#e96a3d" stroke="#1f1e1a" stroke-width="5" stroke-linejoin="round"/>
    <g clip-path="url(#brainClip)" fill="none" stroke-linecap="round" stroke-linejoin="round">
      <path d="M 110 16 Q 104 48 112 78 Q 102 108 116 138 Q 104 168 112 200" stroke="#7a2e15" stroke-width="4"/>
      <path d="M 38 60 Q 56 48 76 60 Q 88 70 78 86" stroke="#7a2e15" stroke-width="3.5"/>
      <path d="M 28 88 Q 54 80 70 96 Q 60 110 78 120" stroke="#7a2e15" stroke-width="3.5"/>
      <path d="M 144 56 Q 168 70 168 92 Q 156 108 172 122" stroke="#7a2e15" stroke-width="3.5"/>
      <path d="M 64 30 Q 78 64 70 100 Q 78 130 62 156" stroke="#7a2e15" stroke-width="3.5"/>
    </g>
    <!-- eyes -->
    <ellipse cx="85" cy="100" rx="6" ry="8" fill="#1f1e1a"/>
    <ellipse cx="135" cy="100" rx="6" ry="8" fill="#1f1e1a"/>
    <!-- smile -->
    <path d="M 80 140 Q 110 160 140 140" fill="none" stroke="#1f1e1a" stroke-width="5" stroke-linecap="round"/>
  </g>

  <!-- sticker star -->
  <g transform="translate(1080 130) rotate(-14)">
    <path d="M 30 2 L 36 22 L 58 24 L 40 36 L 48 58 L 30 46 L 12 58 L 20 36 L 2 24 L 24 22 Z"
          fill="#f4c83a" stroke="#1f1e1a" stroke-width="3" stroke-linejoin="round"/>
    <text x="30" y="36" text-anchor="middle" font-family="Georgia, serif" font-size="16" fill="#1f1e1a" font-weight="700">ship</text>
  </g>

  <!-- wordmark -->
  <text x="80" y="220" font-family="Georgia, 'Times New Roman', serif" font-size="120" fill="#1f1e1a" font-weight="700" letter-spacing="-3">stimli</text>

  <!-- tagline -->
  <text x="80" y="290" font-family="system-ui, -apple-system, sans-serif" font-size="32" fill="#3a3528" font-weight="500">Pretest your DTC creative.</text>
  <text x="80" y="332" font-family="system-ui, -apple-system, sans-serif" font-size="32" fill="#3a3528" font-weight="500">Know which ad <tspan fill="#e96a3d" font-weight="700">a real brain</tspan> will love.</text>

  <!-- pill -->
  <g transform="translate(80 380)">
    <rect x="0" y="0" rx="999" ry="999" width="370" height="48" fill="#f7e9b6" stroke="#1f1e1a" stroke-width="2.5"/>
    <circle cx="22" cy="24" r="6" fill="#e96a3d"/>
    <text x="40" y="32" font-family="system-ui, sans-serif" font-size="18" fill="#1f1e1a" font-weight="600">brain-aware · 4 signals · no spend wasted</text>
  </g>

  <!-- footer URL -->
  <text x="80" y="570" font-family="ui-monospace, 'JetBrains Mono', monospace" font-size="22" fill="#3a3528" font-weight="500">stimli.vercel.app</text>
  <text x="1120" y="570" font-family="system-ui, sans-serif" font-size="18" fill="#3a3528" text-anchor="end" font-weight="500">© 2026 Stimli · pretest, don't guess</text>

  <!-- decorative dashes -->
  <path d="M 80 530 L 600 530" stroke="#1f1e1a" stroke-width="1.5" stroke-dasharray="3 6" opacity="0.4"/>
</svg>
